<svg version="1.0" xmlns="http://www.w3.org/2000/svg"
 width="100.000000pt" height="100.000000pt" viewBox="0 0 100.000000 100.000000"
 preserveAspectRatio="xMidYMid meet">

<g transform="translate(0.000000,100.000000) scale(0.100000,-0.100000)"
stroke="none">
<path d="M454 903 c-56 -28 -132 -99 -207 -193 l-52 -64 -3 -120 c-4 -137 4
-174 53 -249 49 -75 52 -78 138 -137 l79 -55 51 28 c29 16 85 50 124 75 79 51
81 54 124 202 37 129 26 264 -28 350 -32 49 -174 174 -209 182 -12 3 -43 -5
-70 -19z m20 -82 c3 -5 30 -23 59 -39 59 -33 113 -90 123 -127 14 -56 -17
-100 -140 -199 -27 -22 -45 -41 -40 -42 5 -1 35 -8 67 -15 l58 -12 29 31 c46
50 89 37 52 -16 -19 -28 -42 -76 -61 -125 -12 -31 -27 -33 -78 -12 -52 22
-129 19 -170 -6 -41 -25 -67 -19 -58 13 13 45 82 139 159 218 85 87 91 106 44
150 -37 34 -84 36 -142 7 -73 -38 -88 -7 -30 59 13 16 39 50 57 76 30 44 58
60 71 39z"/>
</g>
</svg>
