<svg version="1.0" xmlns="http://www.w3.org/2000/svg"
 width="100.000000pt" height="100.000000pt" viewBox="0 0 100.000000 100.000000"
 preserveAspectRatio="xMidYMid meet">

<g transform="translate(0.000000,100.000000) scale(0.100000,-0.100000)"
stroke="none">
<path d="M370 941 c-31 -10 -67 -25 -80 -34 -29 -18 -44 -12 -55 21 -15 48
-37 18 -82 -107 -24 -69 -42 -130 -39 -137 4 -10 23 -7 78 13 40 14 78 29 83
33 6 4 28 13 50 20 60 19 69 29 48 52 -21 23 -12 32 49 47 64 15 133 14 193
-4 53 -17 155 -79 155 -95 0 -6 -42 -10 -105 -10 -98 0 -105 -1 -105 -20 0
-16 7 -20 34 -20 56 0 61 -15 58 -176 -3 -174 0 -184 66 -184 27 0 53 5 60 12
8 8 12 64 12 186 0 196 5 206 55 107 27 -54 30 -69 30 -155 0 -87 -3 -101 -32
-160 -39 -80 -99 -142 -172 -178 -46 -22 -72 -28 -146 -30 -104 -4 -176 17
-235 67 l-35 30 112 1 c98 0 112 2 116 18 3 9 6 89 6 177 2 202 4 198 -110
200 -139 2 -129 17 -129 -200 0 -131 -3 -184 -11 -179 -37 22 -99 159 -99 217
0 29 -24 47 -65 47 -35 0 -41 -21 -27 -98 37 -221 229 -382 453 -382 198 0
352 95 435 267 33 68 38 88 42 174 4 81 1 108 -17 164 -67 207 -248 337 -466
334 -38 0 -95 -9 -125 -18z"/>
<path d="M403 664 c-8 -20 13 -34 54 -34 17 0 35 -6 40 -12 4 -7 10 -85 13
-173 l5 -160 50 -3 c73 -5 75 1 75 198 0 207 5 200 -134 200 -79 0 -98 -3
-103 -16z"/>
</g>
</svg>
