<svg version="1.0" xmlns="http://www.w3.org/2000/svg"
 width="500.000000pt" height="500.000000pt" viewBox="0 0 500.000000 500.000000"
 preserveAspectRatio="xMidYMid meet">

<g transform="translate(0.000000,500.000000) scale(0.100000,-0.100000)"
stroke="none">
<path d="M2360 4730 c-433 -20 -784 -83 -951 -172 -242 -129 -473 -377 -570
-612 -47 -114 -102 -323 -126 -476 -26 -166 -26 -659 0 -850 55 -405 160 -762
314 -1063 156 -306 517 -792 728 -982 184 -165 357 -270 530 -321 123 -36 284
-39 397 -6 667 190 1302 984 1538 1922 68 272 90 439 97 742 6 259 0 366 -33
578 -19 124 -77 358 -114 464 -92 261 -270 443 -595 608 -163 82 -269 113
-500 144 -94 12 -490 36 -535 32 -8 -1 -89 -4 -180 -8z m1402 -1608 c59 -10
111 -21 114 -25 10 -10 -62 -102 -119 -152 -64 -57 -169 -108 -263 -129 -39
-8 -147 -25 -240 -36 -165 -21 -341 -47 -366 -54 -7 -3 -26 -7 -42 -11 l-29
-6 6 63 c12 121 61 208 147 263 36 22 205 97 245 108 45 13 441 -2 547 -21z
m-1883 -6 c86 -24 159 -65 215 -120 65 -66 126 -179 126 -235 0 -50 15 -49
-252 -21 -408 44 -527 77 -678 189 -61 45 -166 164 -150 169 5 2 101 12 212
22 229 21 442 20 527 -4z"/>
</g>
</svg>
