<svg version="1.0" xmlns="http://www.w3.org/2000/svg"
 width="500.000000pt" height="500.000000pt" viewBox="0 0 500.000000 500.000000"
 preserveAspectRatio="xMidYMid meet">

<g transform="translate(0.000000,500.000000) scale(0.100000,-0.100000)" stroke="none">
<path d="M2318 4852 c-69 -48 -171 -104 -423 -231 -298 -149 -414 -221 -518
-324 -118 -115 -92 -46 -342 -912 -229 -793 -337 -1152 -379 -1254 -128 -311
-142 -434 -72 -608 64 -156 164 -292 361 -488 270 -271 772 -654 1036 -790
266 -137 478 -158 734 -73 424 142 1015 559 1360 960 151 176 239 317 280 448
l17 55 -92 335 c-50 184 -131 477 -180 650 -49 173 -119 434 -155 580 -132
530 -193 700 -318 885 -92 137 -324 342 -547 482 -400 253 -473 288 -642 301
-80 7 -88 6 -120 -16z m-370 -1051 c55 -22 167 -79 218 -111 65 -42 175 -72
280 -77 122 -7 202 13 329 82 129 69 216 97 326 102 98 6 225 -13 296 -42 29
-12 73 -65 73 -88 0 -7 -50 -2 -92 9 -31 9 -31 -37 2 -136 49 -149 165 -564
224 -800 88 -349 156 -714 156 -835 0 -18 -25 -116 -55 -217 -79 -259 -86
-281 -95 -271 -4 4 -22 46 -40 92 l-34 85 -78 -83 c-43 -45 -169 -202 -281
-349 -237 -313 -390 -476 -532 -568 -131 -86 -166 -100 -213 -86 -152 47 -765
667 -971 984 -31 48 -62 90 -70 93 -25 10 -44 -22 -49 -82 -4 -53 -19 -83 -43
-83 -10 0 -36 118 -56 249 -19 129 -21 477 -4 631 38 333 111 650 258 1109 75
238 75 251 -2 251 l-46 0 23 31 c31 42 90 75 212 119 98 36 102 36 157 24 31
-7 79 -22 107 -33z"/>
<path d="M1772 3055 l-83 -56 31 -39 c35 -44 124 -114 190 -149 l45 -23 143
28 c79 16 143 34 143 39 0 9 -366 255 -380 255 -3 0 -43 -25 -89 -55z"/>
<path d="M2865 3004 c-88 -59 -164 -110 -169 -114 -5 -5 24 -30 65 -55 70 -46
75 -47 130 -42 32 3 92 15 134 28 80 23 85 28 169 140 l27 37 -91 56 c-50 31
-94 56 -98 56 -4 0 -79 -48 -167 -106z"/>
</g>
</svg>
