<svg version="1.0" xmlns="http://www.w3.org/2000/svg"
 width="100.000000pt" height="100.000000pt" viewBox="0 0 100.000000 100.000000"
 preserveAspectRatio="xMidYMid meet">

<g transform="translate(0.000000,100.000000) scale(0.100000,-0.100000)"
troke="none">
<path d="M167 914 c-3 -3 -3 -101 0 -218 l6 -211 29 -35 c15 -19 28 -39 28
-44 0 -5 7 -18 17 -28 9 -10 21 -27 27 -37 6 -10 35 -53 64 -94 28 -42 52 -80
52 -84 0 -5 14 -25 31 -46 25 -31 37 -37 69 -37 34 0 42 5 77 52 21 28 42 58
48 67 5 9 21 32 35 51 24 34 35 52 69 115 9 17 30 50 47 75 31 45 31 46 43
253 6 114 9 212 6 217 -7 11 -637 14 -648 4z"/>
</g>
</svg>
