<svg version="1.0" xmlns="http://www.w3.org/2000/svg"
 width="100.000000pt" height="100.000000pt" viewBox="0 0 100.000000 100.000000"
 preserveAspectRatio="xMidYMid meet">

<g transform="translate(0.000000,100.000000) scale(0.100000,-0.100000)"
stroke="none">
<path d="M478 963 c-27 -31 -148 -214 -148 -224 0 -9 7 -11 50 -13 24 -1 25
-4 28 -78 3 -86 8 -91 62 -63 27 14 33 14 60 0 53 -28 59 -22 62 58 3 72 3 72
33 75 17 2 34 8 39 12 11 11 -143 250 -160 250 -6 0 -18 -8 -26 -17z"/>
<path d="M793 833 c-60 -78 -133 -192 -133 -207 0 -9 11 -16 33 -18 31 -3 32
-4 35 -55 2 -41 8 -56 27 -71 21 -17 25 -30 29 -95 2 -42 7 -80 11 -86 9 -16
91 -14 107 2 10 10 14 53 16 153 2 76 6 142 8 146 3 4 18 8 35 8 16 0 29 5 29
12 0 14 -136 222 -155 238 -10 8 -20 1 -42 -27z"/>
<path d="M126 808 c-19 -29 -53 -79 -75 -111 -49 -69 -52 -87 -12 -87 16 0 33
-6 38 -12 6 -7 10 -74 10 -149 0 -75 3 -141 7 -148 8 -12 84 -15 102 -3 7 4
13 41 15 83 4 67 7 80 29 97 18 15 25 32 30 73 l5 54 38 3 c20 2 37 5 37 8 0
16 -163 244 -175 244 -8 0 -30 -24 -49 -52z"/>
<path d="M372 519 c-57 -28 -102 -55 -100 -60 4 -13 128 -80 190 -103 l44 -17
109 53 c60 29 110 58 112 64 5 14 -200 114 -230 113 -12 0 -68 -23 -125 -50z"/>
<path d="M247 413 c-11 -10 -8 -219 3 -247 5 -14 29 -38 52 -52 68 -44 159
-94 169 -94 5 0 9 63 9 139 l0 140 -32 24 c-29 21 -177 97 -190 97 -3 0 -8 -3
-11 -7z"/>
<path d="M639 371 c-128 -68 -119 -52 -119 -212 0 -99 3 -139 12 -139 21 0
199 112 214 135 21 32 16 259 -6 261 -8 1 -54 -19 -101 -45z"/>
</g>
</svg>
