<svg version="1.0" xmlns="http://www.w3.org/2000/svg"
 width="500.000000pt" height="500.000000pt" viewBox="0 0 500.000000 500.000000"
 preserveAspectRatio="xMidYMid meet">

<g transform="translate(0.000000,500.000000) scale(0.100000,-0.100000)"
stroke="none">
<path d="M1571 4690 c-224 -158 -396 -426 -466 -727 -35 -152 -37 -394 -4
-553 17 -84 76 -245 116 -319 87 -160 235 -328 380 -429 l62 -42 11 56 c70
335 328 633 620 713 41 12 76 21 77 21 2 0 3 -35 3 -77 0 -128 -29 -328 -75
-510 l-43 -171 24 -49 c37 -77 53 -156 65 -328 13 -198 7 -406 -32 -995 -32
-489 -40 -847 -20 -942 23 -109 80 -148 216 -148 98 0 130 12 170 64 53 70 54
163 13 961 -43 839 -25 1279 58 1401 l25 37 -56 161 c-30 88 -62 193 -70 231
-15 71 -22 365 -8 365 4 0 36 -7 72 -16 224 -56 433 -244 552 -499 39 -83 79
-216 79 -262 0 -12 5 -23 11 -23 13 0 115 82 196 157 150 139 268 316 328 492
81 241 71 585 -25 850 -84 230 -222 421 -374 520 -59 38 -144 78 -150 70 -1
-2 -17 -49 -34 -104 -55 -177 -170 -334 -331 -456 -64 -48 -291 -169 -318
-169 -15 0 -16 13 -3 103 12 79 0 120 -45 155 -53 42 -182 24 -216 -31 -18
-28 -20 -44 -16 -129 3 -54 2 -98 -3 -98 -16 0 -157 62 -216 95 -109 61 -218
159 -305 275 -50 66 -82 129 -144 280 -25 63 -48 116 -49 118 -2 1 -35 -21
-75 -48z"/>
</g>
</svg>
