<svg version="1.0" xmlns="http://www.w3.org/2000/svg"
 width="500.000000pt" height="500.000000pt" viewBox="0 0 520.000000 500.000000"
 preserveAspectRatio="xMidYMid meet">

<g transform="translate(0.000000,500.000000) scale(0.100000,-0.100000)"
stroke="none">
<path d="M1515 4697 c11 -66 59 -180 139 -327 101 -185 164 -313 193 -390 24
-64 25 -69 44 -780 18 -654 21 -723 41 -805 93 -395 331 -675 740 -870 192
-91 296 -125 381 -125 l74 0 7 70 c12 122 -9 363 -50 573 -34 172 -85 350
-195 672 -120 352 -140 417 -127 409 21 -13 112 -163 163 -269 126 -260 210
-571 326 -1210 41 -226 42 -237 53 -578 6 -192 9 -350 6 -352 -9 -5 -133 75
-227 147 -51 38 -176 149 -279 246 -241 229 -332 312 -424 382 -346 264 -687
336 -1130 238 -190 -42 -376 -119 -576 -241 -291 -176 -299 -182 -400 -282
-55 -55 -115 -124 -133 -154 -31 -52 -32 -54 -9 -47 47 14 234 18 308 7 180
-28 422 -133 895 -387 412 -221 636 -298 865 -298 226 0 395 77 569 259 l64
66 -27 28 c-15 15 -73 55 -129 89 -107 63 -403 212 -423 212 -6 0 -17 7 -24
15 -10 12 -10 15 0 15 7 0 214 -89 459 -199 l447 -198 131 -102 c119 -92 135
-101 174 -101 59 0 118 31 197 104 132 121 113 113 384 160 190 34 255 49 298
71 311 158 480 443 545 914 16 119 34 451 35 633 0 84 -3 110 -16 122 -22 23
-26 21 -56 -27 -37 -58 -157 -190 -231 -255 -34 -30 -109 -88 -166 -130 -314
-233 -387 -290 -456 -359 -197 -196 -283 -397 -293 -680 -5 -167 -8 -164 103
-114 76 35 130 70 250 166 50 39 106 82 125 95 l35 25 -22 -30 c-71 -101 -335
-302 -545 -415 l-77 -41 -20 65 c-36 117 -51 224 -52 366 0 203 21 312 138
705 36 121 76 267 88 325 69 305 55 526 -51 849 -250 763 -953 1376 -1972
1722 l-174 59 7 -43z"/>
</g>
</svg>
