<svg version="1.0" xmlns="http://www.w3.org/2000/svg"
 width="500.000000pt" height="500.000000pt" viewBox="0 0 500.000000 500.000000"
 preserveAspectRatio="xMidYMid meet">

<g transform="translate(0.000000,500.000000) scale(0.100000,-0.100000)"
stroke="none">
<path d="M464 4519 c3 -19 22 -131 41 -249 100 -610 180 -974 296 -1356 180
-595 426 -1054 749 -1397 87 -93 236 -224 318 -280 l37 -26 140 33 c77 19 191
46 253 61 61 15 112 30 112 35 0 4 -75 68 -167 143 -691 557 -947 972 -1107
1792 -30 154 -86 578 -86 654 l0 34 80 -7 c217 -19 644 -97 918 -166 822 -210
1342 -573 1553 -1083 33 -82 60 -121 72 -107 7 8 117 512 117 534 0 21 -93
163 -170 261 -125 157 -320 314 -503 404 -249 121 -300 143 -542 231 -687 250
-1472 447 -2058 516 l-58 6 5 -33z"/>
<path d="M3540 4340 c-520 -115 -952 -210 -960 -212 -22 -5 76 -60 203 -114
224 -95 512 -142 701 -115 185 26 527 63 533 57 3 -3 -77 -367 -177 -808
l-183 -803 -53 -105 c-198 -389 -473 -639 -896 -814 -195 -80 -420 -142 -1093
-301 -110 -26 -281 -69 -379 -96 -99 -27 -181 -47 -184 -44 -3 2 31 186 76
407 l81 403 -47 70 c-26 38 -73 108 -105 155 -65 95 -112 188 -138 270 -15 48
-41 83 -52 70 -9 -12 -407 -1889 -407 -1922 0 -33 3 -38 23 -38 51 0 439 52
630 85 1104 187 1867 530 2415 1085 559 565 885 1356 1031 2505 18 140 51 442
51 466 0 29 -175 -4 -1070 -201z"/>
<path d="M1582 3459 c-166 -160 -302 -298 -302 -306 0 -17 119 -535 124 -540
2 -2 25 20 51 49 43 48 93 113 318 416 179 241 344 381 557 473 72 32 100 49
100 61 0 10 -1 18 -3 18 -2 0 -124 27 -272 60 -148 33 -269 60 -270 60 -1 0
-137 -131 -303 -291z"/>
<path d="M4022 2060 l-162 -282 80 -356 c48 -213 80 -373 78 -398 l-3 -41
-420 78 c-231 44 -428 79 -438 79 -17 0 -475 -267 -505 -294 -35 -33 2 -42
947 -245 513 -111 951 -201 973 -201 33 0 38 3 34 18 -4 14 -391 1779 -414
1889 -7 35 -11 30 -170 -247z"/>
</g>
</svg>
