<svg version="1.0" xmlns="http://www.w3.org/2000/svg"
 width="500.000000pt" height="500.000000pt" viewBox="0 0 500.000000 500.000000"
 preserveAspectRatio="xMidYMid meet">

<g transform="translate(0.000000,500.000000) scale(0.100000,-0.100000)"
stroke="none">
<path d="M4002 4617 c-26 -27 -72 -147 -72 -187 0 -16 22 -72 49 -124 27 -53
46 -96 43 -96 -4 0 -56 29 -115 65 -60 36 -112 65 -117 65 -9 0 -94 -112 -129
-170 -26 -43 -28 -124 -5 -160 9 -14 42 -51 73 -82 30 -32 52 -58 48 -58 -4 0
-57 20 -117 44 l-110 44 -55 -81 c-177 -263 -422 -460 -778 -623 -169 -77
-284 -120 -697 -259 -217 -73 -460 -158 -540 -190 -420 -166 -699 -361 -889
-619 -66 -89 -121 -191 -121 -222 0 -27 7 -33 72 -66 105 -51 171 -108 246
-210 53 -72 70 -88 86 -84 12 2 108 23 213 47 167 37 195 46 208 66 9 13 52
100 95 194 44 94 100 201 124 237 43 65 92 120 100 111 2 -2 -39 -98 -91 -214
l-94 -209 23 -18 c130 -104 277 -169 531 -237 l118 -32 20 23 c10 13 67 86
127 163 190 248 316 361 460 415 l57 22 55 -22 c143 -58 265 -147 457 -334
l123 -118 71 75 c102 111 202 174 344 218 99 31 104 23 24 -33 -156 -109 -369
-290 -369 -314 0 -7 49 -56 110 -110 177 -156 207 -223 197 -439 -4 -71 -13
-160 -20 -197 -8 -38 -12 -68 -9 -68 2 0 30 16 62 35 82 50 159 137 213 243
46 88 47 92 47 181 0 182 -36 408 -92 576 -125 374 -352 604 -670 677 -94 21
-98 23 -98 48 0 33 123 184 237 290 371 348 824 566 1325 638 l117 17 -85 170
c-252 501 -438 737 -708 899 -33 20 -63 36 -66 36 -4 0 -16 -10 -28 -23z"/>
<path d="M361 1804 c-60 -65 -110 -164 -145 -288 -36 -122 -41 -179 -26 -293
16 -129 52 -250 103 -348 55 -104 180 -232 287 -292 87 -49 215 -100 204 -81
-4 7 -24 38 -44 68 -66 99 -98 164 -131 260 -30 90 -31 101 -27 210 4 92 11
130 33 190 31 87 80 179 141 267 l43 62 -45 61 c-25 33 -73 85 -107 115 -65
58 -181 125 -215 125 -12 0 -42 -24 -71 -56z"/>
<path d="M1494 1617 c15 -178 71 -377 151 -537 87 -173 249 -371 394 -481 60
-46 280 -164 288 -155 2 2 -28 53 -68 112 -93 141 -163 288 -196 411 -22 84
-26 121 -27 253 0 85 1 182 4 214 l5 59 -85 23 c-115 30 -255 82 -374 138
l-99 46 7 -83z"/>
</g>
</svg>
