<svg version="1.0" xmlns="http://www.w3.org/2000/svg"
 width="500.000000pt" height="500.000000pt" viewBox="0 0 510.000000 500.000000"
 preserveAspectRatio="xMidYMid meet">

<g transform="translate(0.000000,500.000000) scale(0.100000,-0.100000)"
stroke="none">
<path d="M3449 4675 c-79 -40 -200 -151 -278 -254 -57 -75 -175 -253 -214
-321 -47 -84 -158 -231 -232 -309 -83 -87 -193 -167 -270 -197 -25 -9 -45 -22
-45 -28 0 -18 146 -157 350 -334 278 -241 381 -353 475 -517 55 -97 99 -209
130 -330 13 -49 28 -89 33 -88 6 1 153 99 328 218 188 127 341 224 374 236 30
11 197 73 370 137 l314 117 13 45 c34 117 47 228 47 410 0 155 -3 202 -22 289
-50 230 -147 421 -289 572 -205 216 -473 343 -805 379 -163 17 -204 14 -279
-25z"/>
<path d="M2192 3351 c-51 -60 -166 -148 -250 -190 -41 -21 -60 -36 -56 -44 27
-48 66 -83 147 -133 120 -74 216 -155 353 -297 227 -234 381 -480 446 -716 15
-53 27 -79 35 -76 7 2 102 72 212 154 l199 150 -13 68 c-53 276 -218 570 -450
798 -107 106 -172 157 -284 224 -83 50 -234 111 -275 111 -15 0 -37 -17 -64
-49z"/>
<path d="M1132 2620 c-314 -198 -580 -360 -589 -360 -10 0 81 -45 202 -100
206 -94 226 -105 322 -185 293 -245 543 -651 647 -1050 15 -55 34 -155 44
-222 21 -151 35 -160 77 -50 67 175 193 387 334 562 121 152 391 414 513 499
22 15 22 18 10 109 -57 457 -379 874 -846 1096 -55 27 -110 51 -121 55 -16 4
-162 -83 -593 -354z"/>
<path d="M3070 1955 c-102 -86 -186 -161 -188 -168 -5 -25 77 -326 117 -429
65 -164 124 -261 221 -358 68 -69 103 -95 178 -134 75 -38 93 -44 88 -29 -3
10 -26 112 -51 228 -25 116 -47 220 -50 233 -3 13 -1 22 6 22 7 0 98 -36 203
-79 105 -44 242 -96 305 -115 102 -32 126 -36 223 -36 59 0 108 4 108 9 0 16
-75 105 -121 145 -24 21 -132 97 -239 169 -276 187 -285 197 -439 467 -107
188 -132 225 -152 227 -18 2 -70 -36 -209 -152z"/>
<path d="M388 2034 c-74 -38 -89 -58 -127 -174 -88 -268 -5 -660 197 -930 60
-80 155 -172 231 -222 81 -53 207 -98 275 -98 l43 0 28 63 c34 74 45 197 25
286 -42 196 -225 390 -428 456 l-54 17 34 22 c18 12 119 75 223 139 136 84
196 126 210 149 l18 32 -69 65 c-131 122 -259 189 -410 216 -115 20 -118 20
-196 -21z"/>
<path d="M1013 1567 l-111 -72 15 -30 c9 -16 58 -92 110 -167 102 -149 152
-247 177 -348 17 -70 38 -95 65 -80 9 5 63 54 121 109 l105 99 -22 86 c-40
156 -119 304 -210 392 -41 41 -109 84 -130 84 -4 0 -58 -33 -120 -73z"/>
<path d="M1480 863 c-45 -72 -175 -210 -253 -269 -72 -54 -166 -102 -219 -110
-45 -8 -46 -17 -14 -65 94 -137 360 -180 531 -85 83 46 97 69 105 168 13 164
-21 317 -84 384 l-31 33 -35 -56z"/>
</g>
</svg>
