<svg version="1.0" xmlns="http://www.w3.org/2000/svg"
 width="500.000000pt" height="500.000000pt" viewBox="0 0 500.000000 500.000000"
 preserveAspectRatio="xMidYMid meet">

<g transform="translate(0.000000,500.000000) scale(0.100000,-0.100000)"
stroke="none">
<path d="M2210 4871 c-19 -4 -45 -13 -57 -19 -24 -13 -66 -65 -76 -94 -6 -16
-21 -18 -109 -19 -57 0 -227 -4 -379 -8 l-275 -8 -136 -77 -137 -77 -15 -69
c-25 -111 -36 -240 -36 -453 0 -373 41 -760 84 -796 33 -28 130 -34 550 -35
l429 -1 11 -33 c6 -18 35 -54 64 -80 52 -46 53 -48 72 -142 30 -152 41 -362
41 -788 0 -421 -12 -775 -36 -1106 -8 -109 -15 -202 -15 -207 0 -5 109 -9 241
-9 l242 0 -7 78 c-38 443 -35 1628 5 1987 17 156 16 154 68 178 44 21 68 53
86 111 5 17 20 18 368 11 l362 -7 155 91 155 92 6 147 c28 633 22 871 -23
1009 -32 96 -58 121 -148 137 -125 24 -361 38 -632 40 l-257 1 -18 38 c-41 92
-123 117 -373 116 -96 -1 -191 -4 -210 -8z"/>
<path d="M2180 736 c0 -59 -27 -164 -85 -331 -30 -88 -55 -169 -55 -182 0 -17
14 -28 63 -51 200 -95 382 -105 610 -35 103 31 112 43 101 132 -10 84 -58 264
-99 371 -20 52 -38 102 -39 110 -3 13 -39 15 -249 18 l-247 2 0 -34z"/>
</g>
</svg>
