<svg version="1.0" xmlns="http://www.w3.org/2000/svg"
 width="500.000000pt" height="500.000000pt" viewBox="0 0 500.000000 500.000000"
 preserveAspectRatio="xMidYMid meet">

<g transform="translate(0.000000,500.000000) scale(0.100000,-0.100000)"
stroke="none">
<path d="M290 4736 c0 -3 43 -139 96 -303 184 -574 532 -1750 675 -2278 17
-60 39 -140 50 -178 l20 -67 79 0 c44 0 80 3 80 6 0 4 -45 165 -100 358 -184
650 -328 1160 -350 1241 -12 44 -71 254 -131 467 -60 213 -109 395 -109 404 0
13 6 15 28 9 95 -25 282 -59 512 -95 703 -109 956 -163 1149 -245 238 -102
343 -206 386 -380 27 -109 17 -200 -55 -480 -45 -175 -63 -265 -67 -334 l-6
-94 -48 -58 c-220 -263 -1334 -1360 -1572 -1546 l-28 -22 19 -44 c19 -44 75
-107 111 -127 16 -8 25 -3 58 33 255 289 1135 1195 1363 1404 189 174 213 189
331 202 104 12 176 28 414 91 148 40 170 43 295 44 129 1 138 0 198 -28 149
-69 267 -268 346 -581 32 -127 47 -218 96 -592 56 -421 101 -621 180 -798 16
-36 26 -65 22 -65 -4 0 -79 21 -167 45 -88 25 -347 97 -575 160 -504 138
-1084 298 -1438 396 l-264 73 -18 -25 c-18 -23 -45 -107 -37 -115 5 -5 259
-78 597 -170 151 -41 322 -89 380 -106 105 -30 547 -152 1275 -352 l390 -108
97 -64 97 -64 -28 78 c-16 42 -72 192 -125 332 -110 291 -118 328 -161 740
-69 669 -88 804 -140 984 -75 260 -195 431 -376 539 -72 42 -193 84 -272 93
l-53 6 -31 -71 -32 -71 -212 0 c-201 0 -211 1 -197 18 8 9 88 99 177 200 117
131 169 182 184 182 12 0 78 -9 147 -19 69 -11 128 -16 132 -12 6 6 61 125
153 336 29 66 78 176 109 244 31 68 55 125 54 127 -2 1 -91 -33 -198 -77 -107
-44 -267 -110 -356 -146 l-160 -66 20 -140 20 -140 -174 -168 c-96 -93 -187
-178 -202 -190 l-28 -20 -11 28 c-18 46 -24 226 -9 279 15 54 63 107 114 125
33 12 35 15 38 68 14 193 -71 343 -271 476 -267 177 -613 276 -1486 425 -575
98 -823 154 -987 225 -10 4 -18 5 -18 1z"/>
<path d="M1125 1740 c-101 -67 -150 -105 -150 -117 0 -12 18 -27 50 -43 41
-20 68 -25 150 -28 l100 -4 88 95 c48 53 98 109 112 125 l25 30 -98 17 c-53 9
-104 18 -112 20 -8 2 -82 -41 -165 -95z"/>
<path d="M1614 1473 c-44 -49 -95 -105 -113 -125 l-33 -38 17 -107 c23 -155
25 -162 44 -173 16 -8 32 11 113 138 120 186 118 180 118 244 0 54 -32 138
-56 145 -5 2 -46 -36 -90 -84z"/>
<path d="M600 1375 c-150 -105 -208 -151 -217 -173 l-12 -30 47 -5 c26 -4 125
-14 221 -23 l175 -17 35 40 c20 23 89 97 154 166 64 68 117 129 117 135 0 7
-10 14 -22 16 -35 8 -258 36 -276 36 -10 -1 -109 -66 -222 -145z"/>
<path d="M1215 1027 l-140 -172 -3 -93 c-4 -86 21 -297 37 -314 7 -7 298 398
323 451 34 71 14 208 -38 271 -14 16 -29 30 -32 30 -4 0 -70 -78 -147 -173z"/>
</g>
</svg>
