<svg version="1.0" xmlns="http://www.w3.org/2000/svg"
 width="100.000000pt" height="100.000000pt" viewBox="0 0 100.000000 100.000000"
 preserveAspectRatio="xMidYMid meet">

<g transform="translate(0.000000,100.000000) scale(0.100000,-0.100000)"
stroke="none">
<path d="M427 956 c-10 -8 -34 -17 -54 -21 -108 -20 -229 -119 -285 -232 -31
-64 -33 -74 -33 -173 0 -110 16 -180 41 -180 10 0 14 15 14 58 0 145 81 275
205 332 82 37 95 40 114 28 24 -15 52 -6 139 42 88 50 91 66 19 100 -28 13
-64 32 -79 42 -31 21 -56 22 -81 4z"/>
<path d="M475 731 c-6 -5 -44 -22 -85 -39 -41 -16 -76 -35 -78 -43 -3 -16 125
-86 173 -95 43 -7 195 67 195 96 0 11 -6 20 -12 20 -7 0 -44 16 -83 35 -72 36
-94 41 -110 26z"/>
<path d="M883 583 c0 -76 -4 -96 -28 -146 -30 -61 -108 -141 -161 -166 -80
-38 -109 -44 -133 -30 -15 10 -25 10 -48 0 -56 -25 -163 -94 -163 -105 0 -16
160 -96 193 -96 15 0 27 4 27 9 0 5 23 15 52 21 28 7 75 24 102 39 56 28 154
121 174 164 53 115 64 209 38 309 -20 73 -26 88 -40 88 -9 0 -13 -25 -13 -87z"/>
<path d="M270 497 c0 -75 4 -108 15 -124 14 -20 158 -113 176 -113 4 0 10 8
12 18 9 30 5 195 -4 219 -6 16 -35 36 -91 63 -45 22 -88 40 -95 40 -10 0 -13
-25 -13 -103z"/>
<path d="M624 561 c-109 -56 -104 -48 -104 -167 l0 -104 41 0 c30 0 54 10 100
40 l59 41 0 114 c0 86 -3 115 -12 114 -7 0 -45 -17 -84 -38z"/>
</g>
</svg>
