<svg version="1.0" xmlns="http://www.w3.org/2000/svg"
 width="500.000000pt" height="500.000000pt" viewBox="0 0 500.000000 500.000000"
 preserveAspectRatio="xMidYMid meet">

<g transform="translate(0.000000,500.000000) scale(0.100000,-0.100000)"
stroke="none">
<path d="M3874 4873 c-8 -21 -24 -58 -34 -83 -44 -110 -167 -367 -370 -770
-120 -239 -239 -482 -265 -539 -26 -58 -61 -125 -78 -150 -17 -25 -128 -145
-247 -266 -119 -121 -226 -234 -238 -252 -19 -26 -22 -45 -22 -118 l0 -86
-162 -170 c-209 -218 -205 -213 -223 -295 -36 -163 -46 -199 -62 -217 -10 -10
-63 -52 -120 -94 l-102 -77 -26 -110 c-37 -152 -57 -179 -445 -586 -124 -130
-253 -270 -286 -311 -96 -117 -203 -284 -190 -296 11 -11 89 31 168 89 116 86
300 251 521 468 122 119 249 232 326 290 146 111 189 166 235 300 41 121 89
218 131 267 19 23 86 79 148 124 197 146 240 195 251 289 4 30 11 90 18 134
l11 79 83 39 c104 48 115 68 169 293 34 139 45 154 177 255 101 78 123 100
144 144 59 124 253 569 331 756 219 529 237 586 238 755 0 87 -4 117 -18 143
-23 42 -43 41 -63 -5z"/>
<path d="M2662 4512 c-50 -103 -132 -261 -180 -352 -137 -256 -343 -643 -407
-765 -32 -60 -125 -236 -208 -390 -503 -939 -445 -837 -714 -1250 -219 -337
-257 -401 -345 -581 -73 -149 -163 -396 -156 -431 11 -57 44 -17 558 667 285
379 330 441 492 680 431 636 714 1211 937 1905 34 105 80 258 102 340 38 137
41 158 37 247 -2 54 -8 102 -14 108 -7 7 -40 -52 -102 -178z"/>
<path d="M4154 3164 c-16 -22 -45 -66 -64 -99 -282 -502 -1266 -1591 -1785
-1976 -219 -163 -250 -194 -449 -449 -53 -69 -132 -161 -174 -204 -73 -75
-210 -176 -238 -176 -16 0 -69 -68 -60 -77 11 -11 189 23 255 50 108 44 213
115 355 241 75 66 172 152 214 189 42 37 118 93 167 124 588 366 871 651 1260
1268 124 196 429 705 461 768 40 78 72 178 84 266 17 110 12 122 -26 75z"/>
</g>
</svg>
