<svg version="1.0" xmlns="http://www.w3.org/2000/svg"
 width="500.000000pt" height="500.000000pt" viewBox="0 0 500.000000 500.000000"
 preserveAspectRatio="xMidYMid meet">

<g transform="translate(0.000000,500.000000) scale(0.100000,-0.100000)"
stroke="none">
<path d="M4018 4751 c-37 -8 -224 -111 -333 -184 -252 -169 -449 -367 -532
-532 -80 -159 -82 -328 -8 -476 l26 -50 60 32 c73 39 102 72 146 167 18 39 48
105 66 145 36 77 135 209 189 251 18 14 65 51 103 81 39 31 125 94 193 141
l123 86 62 -12 c136 -26 245 -107 306 -228 70 -139 20 -295 -152 -478 -123
-131 -296 -247 -415 -280 -57 -16 -71 -25 -145 -101 -84 -86 -121 -137 -132
-186 -7 -25 -4 -29 51 -54 287 -131 859 231 1094 693 63 122 84 210 78 322 -9
162 -99 335 -246 473 -144 135 -253 187 -406 194 -50 2 -108 1 -128 -4z"/>
<path d="M3147 3306 c-438 -445 -477 -487 -477 -518 1 -47 31 -107 77 -151 69
-66 59 -72 429 283 181 173 401 386 490 473 l161 158 -20 98 -19 99 -67 17
c-36 9 -73 18 -81 20 -10 3 -182 -164 -493 -479z"/>
<path d="M2438 3295 c-486 -279 -760 -669 -708 -1009 10 -71 36 -164 49 -178
11 -12 111 60 176 126 33 34 136 161 228 283 93 123 198 254 235 292 77 79
170 142 245 167 89 29 104 41 204 165 77 97 94 123 82 131 -52 36 -195 74
-314 83 l-80 6 -117 -66z"/>
<path d="M3245 2871 c-124 -99 -159 -148 -216 -296 -85 -226 -389 -514 -597
-568 -46 -12 -60 -23 -166 -137 -63 -69 -115 -128 -116 -132 0 -12 71 -44 129
-58 72 -17 206 -8 296 20 355 111 729 478 809 796 34 133 13 288 -51 385 -14
21 -26 39 -27 39 0 -1 -28 -22 -61 -49z"/>
<path d="M1740 1915 l-461 -461 3 -83 3 -84 51 -28 c28 -16 71 -32 96 -35 l45
-6 269 273 c148 151 360 367 472 480 215 218 228 237 210 306 -12 48 -59 75
-149 88 l-78 11 -461 -461z"/>
<path d="M1104 1919 c-159 -84 -370 -244 -495 -375 -138 -146 -255 -352 -285
-504 -52 -262 61 -487 335 -668 154 -101 271 -133 420 -112 191 26 303 92 497
292 251 260 425 556 428 728 0 56 -5 75 -38 140 -20 41 -41 78 -45 82 -9 11
-102 -81 -158 -157 -27 -35 -105 -151 -175 -258 -208 -317 -314 -413 -514
-468 -92 -25 -147 -21 -210 16 -66 39 -141 121 -176 192 -56 115 -41 212 56
347 80 112 204 217 499 422 208 145 327 239 327 258 0 33 -225 96 -346 96 -49
0 -73 -6 -120 -31z"/>
</g>
</svg>
