<svg version="1.0" xmlns="http://www.w3.org/2000/svg"
 width="500.000000pt" height="500.000000pt" viewBox="0 0 500.000000 500.000000"
 preserveAspectRatio="xMidYMid meet">

<g transform="translate(0.000000,500.000000) scale(0.100000,-0.100000)"
stroke="none">
<path d="M2975 4811 c-60 -26 -140 -60 -176 -75 -178 -73 -318 -194 -385 -332
-34 -71 -39 -88 -42 -176 -7 -173 46 -311 256 -654 61 -100 121 -203 135 -230
125 -250 75 -418 -151 -505 -43 -16 -80 -22 -153 -23 -103 -1 -106 0 -184 67
l-40 35 0 99 c1 91 3 103 36 173 40 83 93 144 163 185 29 17 46 34 46 46 0 26
-10 24 -93 -17 -174 -87 -289 -190 -349 -312 -27 -54 -33 -79 -36 -152 -5
-111 18 -188 93 -313 86 -141 96 -245 32 -329 -45 -59 -96 -82 -187 -86 -155
-7 -182 14 -182 142 1 79 15 143 67 306 120 374 87 814 -82 1102 -45 76 -135
173 -201 215 -52 34 -131 67 -139 59 -2 -2 47 -57 110 -122 194 -202 237 -294
245 -529 3 -105 0 -162 -13 -230 -23 -122 -91 -322 -165 -485 -131 -286 -192
-428 -221 -515 -109 -336 -26 -537 290 -698 81 -41 144 -90 130 -101 -182
-130 -234 -201 -234 -316 1 -136 102 -254 375 -439 117 -79 160 -101 160 -82
0 6 -7 55 -16 109 -40 245 10 347 270 541 152 115 197 159 225 221 44 97 15
264 -73 411 -20 34 -35 63 -33 65 9 9 149 -88 211 -147 121 -115 166 -217 166
-374 0 -79 -17 -174 -79 -440 -16 -72 -35 -171 -42 -220 -14 -107 -6 -275 17
-360 13 -50 24 -68 72 -112 32 -29 60 -52 64 -53 3 0 -1 21 -9 48 -21 67 -29
247 -13 324 15 80 56 170 110 244 24 33 137 151 251 264 219 216 270 282 325
415 26 63 28 82 29 185 0 144 -15 184 -135 355 -46 66 -98 147 -115 180 -28
56 -30 68 -30 165 0 95 3 111 30 170 59 128 170 240 305 309 45 22 76 45 79
56 3 16 -2 17 -40 11 -210 -34 -429 -194 -518 -378 -76 -158 -75 -290 4 -525
25 -74 51 -166 57 -205 12 -65 11 -71 -7 -84 -11 -8 -42 -14 -74 -14 -74 0
-143 33 -203 97 -87 94 -128 208 -128 354 l0 86 210 420 c203 406 210 422 210
480 0 129 -58 274 -241 599 -90 160 -157 303 -195 414 -26 76 -29 98 -29 205
0 103 4 127 23 170 54 116 150 206 307 286 87 44 91 48 68 58 -33 15 -35 15
-158 -38z"/>
</g>
</svg>
